<?xml version="1.0" standalone="no"?><!DOCTYPE svg PUBLIC "-//W3C//DTD SVG 1.1//EN" "http://www.w3.org/Graphics/SVG/1.1/DTD/svg11.dtd"><svg t="1702016185917" class="icon" viewBox="0 0 1024 1024" version="1.1" xmlns="http://www.w3.org/2000/svg" p-id="11602" xmlns:xlink="http://www.w3.org/1999/xlink" width="128" height="128"><path d="M937.066667 541.76a173.013333 173.013333 0 0 0-13.493334-35.84c-44.373333-86.666667-157.973333-120.266667-178.08-120.48a25.013333 25.013333 0 0 1-12.64-3.253333 23.306667 23.306667 0 0 1-7.946666-8.106667c-7.52-11.733333-56.693333-58.24-112.906667-59.36-48.533333-0.96-84.906667 32.533333-98.346667 46.933333l-2.506666 2.72 1.973333 3.146667c18.933333 29.92 49.76 89.333333 43.84 150.933333q0 2.666667-0.48 5.92a225.173333 225.173333 0 0 1-23.52 89.6 203.52 203.52 0 0 1-20.373333 31.626667l-3.306667 4.213333 4.533333 2.88a277.706667 277.706667 0 0 0 43.093334 21.973334c6.08 2.506667 12.266667 4.746667 18.56 6.826666 36.053333 11.733333 128 34.026667 204.64-12.373333 24.693333-15.04 62.08-37.76 82.4-76.853333l1.013333-2.026667a76.266667 76.266667 0 0 1 25.386667-30.986667 75.413333 75.413333 0 0 1 43.413333-11.466666H938.666667z" p-id="11603" fill="#f96eaf"></path><path d="M273.546667 388.373333a124.213333 124.213333 0 0 1 5.333333 33.333334A246.986667 246.986667 0 0 0 282.666667 453.333333c3.946667 20.746667 17.333333 73.653333 56.32 117.76A218.293333 218.293333 0 0 0 421.333333 628.16a259.946667 259.946667 0 0 0 55.306667 15.573333l4.853333 0.8 2.613334-4.213333c17.44-28.32 45.44-86.506667 37.013333-158.293333a249.173333 249.173333 0 0 0-29.28-89.28 224.853333 224.853333 0 0 0-84.8-90.666667c-22.72-13.173333-82.88-41.706667-150.773333-22.773333a176 176 0 0 0-40.266667 16.96l-9.386667 5.333333 8.533334 6.773333c29.226667 23.093333 48.906667 50.026667 58.4 80zM498.88 178.133333c2.453333 7.626667 4 13.706667 4.533333 16a196.106667 196.106667 0 0 1 4.48 61.866667 198.986667 198.986667 0 0 1-13.6 57.066667l-4.213333 10.666666 10.346667-4.693333c7.68-3.466667 15.626667-6.826667 23.573333-9.92 25.44-9.973333 49.44-19.413333 76.906667-22.133333a144.906667 144.906667 0 0 1 55.893333 3.573333 139.786667 139.786667 0 0 1 72.853333 52.053333l5.333334 6.88 2.826666-8.106666c6.293333-18.133333 18.506667-65.333333-4-112-19.466667-40.32-60.853333-71.893333-102.88-78.613334A186.666667 186.666667 0 0 0 602.666667 149.333333a105.6 105.6 0 0 1-48-8.426666l-2.88-1.333334A87.413333 87.413333 0 0 0 485.333333 133.333333l-5.333333 1.6 2.613333 4.906667a245.333333 245.333333 0 0 1 16.266667 38.293333zM780.16 300.533333a167.253333 167.253333 0 0 1-10.666667 51.84l-3.52 9.333334 9.92 1.013333a120.693333 120.693333 0 0 1 35.733334 9.333333 117.813333 117.813333 0 0 1 25.333333 14.986667l4.053333 3.093333 4.426667-2.506666a100.586667 100.586667 0 0 0 45.226667-52.906667 97.653333 97.653333 0 0 0 3.36-52.48l-0.746667-3.68-3.36-1.653333a193.44 193.44 0 0 1-41.92-27.626667c-5.333333-4.693333-9.973333-9.173333-14.4-13.546667-11.893333-11.786667-22.186667-21.92-39.946667-27.093333a75.573333 75.573333 0 0 0-25.333333-2.72l-11.68 0.64 5.333333 10.666667a170.666667 170.666667 0 0 1 18.186667 83.306666z" p-id="11604" fill="#f96eaf"></path><path d="M893.333333 747.306667c-39.946667-22.453333-79.68-16-125.76-8.746667a546.933333 546.933333 0 0 1-86.08 8.8 376.8 376.8 0 0 1-122.666666-20.586667l-18.666667-6.293333 1.333333 1.493333c-12.266667-4.48-24.586667-9.173333-36.693333-13.973333-76.213333-30.186667-114.506667-45.333333-148.213333-70.346667-21.333333-16-57.226667-42.666667-85.066667-88.32-3.733333-6.133333-6.72-11.68-9.653333-17.066666a141.386667 141.386667 0 0 0-30.453334-41.6 168.32 168.32 0 0 0-72.053333-38.186667A181.333333 181.333333 0 0 0 89.066667 448l-32 4.16 32 5.92a154.666667 154.666667 0 0 1 74.666666 33.866667c8.693333 7.52 18.56 19.84 36.533334 42.133333 21.333333 26.666667 26.186667 33.12 32 40.8 2.24 2.986667 4.48 6.133333 7.893333 10.666667 32 42.666667 64 66.186667 102.933333 76.853333a196.8 196.8 0 0 1 35.84 14.08q4.746667 2.293333 9.28 4.96a78.72 78.72 0 0 0-8.213333 38.293333 85.333333 85.333333 0 0 0 37.866667 64 241.493333 241.493333 0 0 0-35.786667 35.893334 247.52 247.52 0 0 0-46.133333 91.573333l37.706666 20.586667a210.293333 210.293333 0 0 1 64-137.12l2.453334 1.066666c2.72 1.013333 5.333333 1.92 8.213333 2.72 29.44 8.16 56 3.68 74.666667-12.533333a77.706667 77.706667 0 0 0 25.12-57.333333l6.186666 6.773333a148.64 148.64 0 0 0 57.12 38.88 193.333333 193.333333 0 0 0 45.226667 10.666667c37.333333 4.96 64.746667 0.96 93.653333-3.306667 9.813333-1.44 19.946667-2.933333 30.826667-4.106667a530.986667 530.986667 0 0 1 140.213333 3.733334l14.506667 2.24-9.973333-10.666667a134.506667 134.506667 0 0 0-32.533334-25.493333zM425.92 283.626667a149.333333 149.333333 0 0 1 30.133333 26.346666l4.533334 5.333334 3.413333-6.293334a158.933333 158.933333 0 0 0 12.693333-35.786666c6.613333-30.08 2.293333-52.64-2.293333-76.533334-3.893333-20.373333-8.48-31.413333-17.066667-40.746666a60.746667 60.746667 0 0 0-13.226666-10.666667l-10.666667-6.4 3.52 11.733333a42.346667 42.346667 0 0 1 1.866667 12c0 22.08-16.373333 38.666667-19.733334 41.813334a63.306667 63.306667 0 0 1-19.786666 12.213333 46.026667 46.026667 0 0 0-21.92 16A56.053333 56.053333 0 0 0 368 256l-0.746667 4.533333 4.48 0.853334a149.92 149.92 0 0 1 54.186667 22.24z" p-id="11605" fill="#f96eaf"></path></svg>